<?xml version="1.0" encoding="UTF-8"?>
<!DOCTYPE svg PUBLIC "-//W3C//DTD SVG 1.1//EN" "http://www.w3.org/Graphics/SVG/1.1/DTD/svg11.dtd">
<svg xmlns="http://www.w3.org/2000/svg" version="1.1" width="242px" height="168px" style="shape-rendering:geometricPrecision; text-rendering:geometricPrecision; image-rendering:optimizeQuality; fill-rule:evenodd; clip-rule:evenodd" xmlns:xlink="http://www.w3.org/1999/xlink">
<g><path style="opacity:1" fill="#151515" d="M -0.5,-0.5 C 80.1667,-0.5 160.833,-0.5 241.5,-0.5C 241.5,55.5 241.5,111.5 241.5,167.5C 160.833,167.5 80.1667,167.5 -0.5,167.5C -0.5,111.5 -0.5,55.5 -0.5,-0.5 Z"/></g>
<g><path style="opacity:1" fill="#3f1672" d="M 114.5,3.5 C 113.07,4.53747 111.403,5.20414 109.5,5.5C 110.635,3.78679 112.302,3.12012 114.5,3.5 Z"/></g>
<g><path style="opacity:1" fill="#7219df" d="M 143.5,4.5 C 145.102,6.07394 147.102,6.74061 149.5,6.5C 149.833,7.16667 150.167,7.83333 150.5,8.5C 150.189,9.47784 149.522,10.1445 148.5,10.5C 133.543,10.3577 118.543,10.0243 103.5,9.5C 105.5,8.16667 107.5,6.83333 109.5,5.5C 111.403,5.20414 113.07,4.53747 114.5,3.5C 124.221,2.10345 133.888,2.43678 143.5,4.5 Z"/></g>
<g><path style="opacity:1" fill="#29163f" d="M 143.5,4.5 C 145.898,4.25939 147.898,4.92606 149.5,6.5C 147.102,6.74061 145.102,6.07394 143.5,4.5 Z"/></g>
<g><path style="opacity:1" fill="#5f1ab0" d="M 109.5,5.5 C 107.5,6.83333 105.5,8.16667 103.5,9.5C 102.167,9.5 100.833,9.5 99.5,9.5C 102.34,7.08491 105.673,5.75158 109.5,5.5 Z"/></g>
<g><path style="opacity:1" fill="#7b1ddc" d="M 150.5,8.5 C 152.954,9.22713 155.287,10.2271 157.5,11.5C 157.414,12.4959 157.748,13.3292 158.5,14C 157.5,14.5 156.5,15 155.5,15.5C 135.866,14.1887 116.2,14.1887 96.5,15.5C 94.2064,14.3746 94.2064,13.0412 96.5,11.5C 98.0269,11.573 99.0269,10.9063 99.5,9.5C 100.833,9.5 102.167,9.5 103.5,9.5C 118.543,10.0243 133.543,10.3577 148.5,10.5C 149.522,10.1445 150.189,9.47784 150.5,8.5 Z"/></g>
<g><path style="opacity:1" fill="#521a8f" d="M 99.5,9.5 C 99.0269,10.9063 98.0269,11.573 96.5,11.5C 96.9731,10.0937 97.9731,9.42702 99.5,9.5 Z"/></g>
<g><path style="opacity:1" fill="#7f20d5" d="M 96.5,11.5 C 94.2064,13.0412 94.2064,14.3746 96.5,15.5C 116.2,14.1887 135.866,14.1887 155.5,15.5C 156.5,15 157.5,14.5 158.5,14C 157.748,13.3292 157.414,12.4959 157.5,11.5C 160.432,12.7997 162.766,14.7997 164.5,17.5C 152.352,18.8325 139.852,19.4991 127,19.5C 114.329,19.4999 101.829,19.1666 89.5,18.5C 90.5,17.1667 91.5,15.8333 92.5,14.5C 93.2623,12.7376 94.5956,11.7376 96.5,11.5 Z"/></g>
<g><path style="opacity:1" fill="#581d8a" d="M 92.5,14.5 C 91.5,15.8333 90.5,17.1667 89.5,18.5C 87.8333,19.5 86.5,20.8333 85.5,22.5C 85.1667,22.5 84.8333,22.5 84.5,22.5C 86.1667,18.8333 88.8333,16.1667 92.5,14.5 Z"/></g>
<g><path style="opacity:1" fill="#8423cf" d="M 164.5,17.5 C 166.167,18.5 167.5,19.8333 168.5,21.5C 168.414,22.4959 168.748,23.3292 169.5,24C 159.14,24.7333 148.806,24.5666 138.5,23.5C 136.901,23.7678 135.568,23.4345 134.5,22.5C 127.218,21.0778 119.885,21.4112 112.5,23.5C 107.535,24.0823 102.535,24.4157 97.5,24.5C 93.107,24.4907 89.107,23.824 85.5,22.5C 86.5,20.8333 87.8333,19.5 89.5,18.5C 101.829,19.1666 114.329,19.4999 127,19.5C 139.852,19.4991 152.352,18.8325 164.5,17.5 Z"/></g>
<g><path style="opacity:1" fill="#461c66" d="M 134.5,22.5 C 126.579,21.8699 118.913,22.8699 111.5,25.5C 111.833,24.8333 112.167,24.1667 112.5,23.5C 119.885,21.4112 127.218,21.0778 134.5,22.5 Z"/></g>
<g><path style="opacity:1" fill="#8a27c9" d="M 84.5,22.5 C 84.8333,22.5 85.1667,22.5 85.5,22.5C 89.107,23.824 93.107,24.4907 97.5,24.5C 102.535,24.4157 107.535,24.0823 112.5,23.5C 112.167,24.1667 111.833,24.8333 111.5,25.5C 109.847,25.6596 108.514,26.3263 107.5,27.5C 105.938,27.7329 104.605,28.3995 103.5,29.5C 96.3664,29.3723 89.3664,29.7056 82.5,30.5C 82.1667,29.8333 81.8333,29.1667 81.5,28.5C 82.5186,26.4893 83.5186,24.4893 84.5,22.5 Z"/></g>
<g><path style="opacity:1" fill="#8726c4" d="M 168.5,21.5 C 170.262,22.2623 171.262,23.5956 171.5,25.5C 173.29,27.909 172.79,29.5757 170,30.5C 164.924,30.4241 159.757,30.4241 154.5,30.5C 152.55,29.6279 150.55,28.9612 148.5,28.5C 145.123,26.8114 141.789,25.1447 138.5,23.5C 148.806,24.5666 159.14,24.7333 169.5,24C 168.748,23.3292 168.414,22.4959 168.5,21.5 Z"/></g>
<g><path style="opacity:1" fill="#5a207b" d="M 80.5,27.5 C 80.573,29.0269 79.9063,30.0269 78.5,30.5C 78.427,28.9731 79.0937,27.9731 80.5,27.5 Z"/></g>
<g><path style="opacity:1" fill="#8f2abe" d="M 84.5,22.5 C 83.5186,24.4893 82.5186,26.4893 81.5,28.5C 81.8333,29.1667 82.1667,29.8333 82.5,30.5C 89.3664,29.7056 96.3664,29.3723 103.5,29.5C 102.833,30.5 102.167,31.5 101.5,32.5C 100.5,32.8333 99.8333,33.5 99.5,34.5C 97.7376,35.2623 96.7376,36.5956 96.5,38.5C 95.8333,38.8333 95.1667,39.1667 94.5,39.5C 88.31,39.8229 82.31,39.4896 76.5,38.5C 76.5,37.1667 76.5,35.8333 76.5,34.5C 76.5,34.1667 76.5,33.8333 76.5,33.5C 77.9063,33.0269 78.573,32.0269 78.5,30.5C 79.9063,30.0269 80.573,29.0269 80.5,27.5C 81.0798,25.2512 82.4131,23.5846 84.5,22.5 Z"/></g>
<g><path style="opacity:1" fill="#2e193a" d="M 107.5,27.5 C 106.089,29.914 104.089,31.5806 101.5,32.5C 102.167,31.5 102.833,30.5 103.5,29.5C 104.605,28.3995 105.938,27.7329 107.5,27.5 Z"/></g>
<g><path style="opacity:1" fill="#8f2abd" d="M 171.5,25.5 C 173.262,26.2623 174.262,27.5956 174.5,29.5C 174.427,31.0269 175.094,32.0269 176.5,32.5C 177.434,33.5676 177.768,34.901 177.5,36.5C 177.5,37.5 177.5,38.5 177.5,39.5C 171.167,39.5 164.833,39.5 158.5,39.5C 155.858,35.2245 152.525,31.5579 148.5,28.5C 150.55,28.9612 152.55,29.6279 154.5,30.5C 159.757,30.4241 164.924,30.4241 170,30.5C 172.79,29.5757 173.29,27.909 171.5,25.5 Z"/></g>
<g><path style="opacity:1" fill="#592175" d="M 174.5,29.5 C 175.906,29.9731 176.573,30.9731 176.5,32.5C 175.094,32.0269 174.427,31.0269 174.5,29.5 Z"/></g>
<g><path style="opacity:1" fill="#4b1e62" d="M 78.5,30.5 C 78.573,32.0269 77.9063,33.0269 76.5,33.5C 76.427,31.9731 77.0937,30.9731 78.5,30.5 Z"/></g>
<g><path style="opacity:1" fill="#371c42" d="M 99.5,34.5 C 99.2624,36.4044 98.2624,37.7377 96.5,38.5C 96.7376,36.5956 97.7376,35.2623 99.5,34.5 Z"/></g>
<g><path style="opacity:1" fill="#67267d" d="M 76.5,34.5 C 76.5,35.8333 76.5,37.1667 76.5,38.5C 74.9925,40.1815 73.9925,42.1815 73.5,44.5C 73.1667,44.5 72.8333,44.5 72.5,44.5C 72.7516,40.6733 74.0849,37.3399 76.5,34.5 Z"/></g>
<g><path style="opacity:1" fill="#471f52" d="M 96.5,38.5 C 96.573,40.0269 95.9063,41.0269 94.5,41.5C 94.5,40.8333 94.5,40.1667 94.5,39.5C 95.1667,39.1667 95.8333,38.8333 96.5,38.5 Z"/></g>
<g><path style="opacity:1" fill="#9c31b5" d="M 177.5,36.5 C 178.167,36.5 178.5,36.8333 178.5,37.5C 178.959,40.8774 179.626,44.2107 180.5,47.5C 174.463,47.8293 168.463,47.4959 162.5,46.5C 162.145,45.4777 161.478,44.811 160.5,44.5C 160.107,42.7162 159.441,41.0495 158.5,39.5C 164.833,39.5 171.167,39.5 177.5,39.5C 177.5,38.5 177.5,37.5 177.5,36.5 Z"/></g>
<g><path style="opacity:1" fill="#a033b2" d="M 76.5,38.5 C 82.31,39.4896 88.31,39.8229 94.5,39.5C 94.5,40.1667 94.5,40.8333 94.5,41.5C 92.7951,44.2609 91.4617,47.2609 90.5,50.5C 84.8333,50.5 79.1667,50.5 73.5,50.5C 73.5,48.5 73.5,46.5 73.5,44.5C 73.9925,42.1815 74.9925,40.1815 76.5,38.5 Z"/></g>
<g><path style="opacity:1" fill="#aa39a7" d="M 72.5,44.5 C 72.8333,44.5 73.1667,44.5 73.5,44.5C 73.5,46.5 73.5,48.5 73.5,50.5C 79.1667,50.5 84.8333,50.5 90.5,50.5C 90.5,51.5 90.5,52.5 90.5,53.5C 89.8763,55.8337 89.043,58.1671 88,60.5C 84.1629,59.2753 80.3295,59.2753 76.5,60.5C 73.107,58.9374 71.7737,56.2708 72.5,52.5C 72.5,49.8333 72.5,47.1667 72.5,44.5 Z"/></g>
<g><path style="opacity:1" fill="#a137a3" d="M 178.5,37.5 C 181.322,43.7439 182.656,50.4106 182.5,57.5C 175.833,57.5 169.167,57.5 162.5,57.5C 162.85,52.9691 162.183,48.6358 160.5,44.5C 161.478,44.811 162.145,45.4777 162.5,46.5C 168.463,47.4959 174.463,47.8293 180.5,47.5C 179.626,44.2107 178.959,40.8774 178.5,37.5 Z"/></g>
<g><path style="opacity:1" fill="#4d234c" d="M 94.5,41.5 C 94.2634,44.6473 93.4301,47.6473 92,50.5C 91.5007,55.4889 91.3341,60.4889 91.5,65.5C 90.5166,61.7016 90.1832,57.7016 90.5,53.5C 90.5,52.5 90.5,51.5 90.5,50.5C 91.4617,47.2609 92.7951,44.2609 94.5,41.5 Z"/></g>
<g><path style="opacity:1" fill="#4d234c" d="M 72.5,44.5 C 72.5,47.1667 72.5,49.8333 72.5,52.5C 71.5318,54.6074 71.1984,56.9407 71.5,59.5C 71.5,61.1667 71.5,62.8333 71.5,64.5C 70.8362,62.1903 70.5029,59.6903 70.5,57C 70.3938,52.5731 71.0605,48.4064 72.5,44.5 Z"/></g>
<g><path style="opacity:1" fill="#933586" d="M 145.5,58.5 C 139.5,58.5 133.5,58.5 127.5,58.5C 127.505,62.5341 127.838,66.5341 128.5,70.5C 129.234,71.7079 129.567,73.0413 129.5,74.5C 127.989,72.5242 127.156,70.1909 127,67.5C 126.502,64.1832 126.335,60.8499 126.5,57.5C 133.022,57.1765 139.355,57.5098 145.5,58.5 Z"/></g>
<g><path style="opacity:1" fill="#b5409a" d="M 72.5,52.5 C 71.7737,56.2708 73.107,58.9374 76.5,60.5C 80.3295,59.2753 84.1629,59.2753 88,60.5C 89.043,58.1671 89.8763,55.8337 90.5,53.5C 90.1832,57.7016 90.5166,61.7016 91.5,65.5C 91.5,66.5 91.5,67.5 91.5,68.5C 91.1344,69.6946 90.301,70.3613 89,70.5C 85,69.1667 81,69.1667 77,70.5C 75.3566,69.6854 73.8566,68.6854 72.5,67.5C 72.8064,64.6146 72.4731,61.9479 71.5,59.5C 71.1984,56.9407 71.5318,54.6074 72.5,52.5 Z"/></g>
<g><path style="opacity:1" fill="#b5409a" d="M 145.5,58.5 C 145.575,61.2062 145.908,63.8728 146.5,66.5C 146.5,67.8333 146.5,69.1667 146.5,70.5C 140.471,70.297 134.471,70.297 128.5,70.5C 127.838,66.5341 127.505,62.5341 127.5,58.5C 133.5,58.5 139.5,58.5 145.5,58.5 Z"/></g>
<g><path style="opacity:1" fill="#712e5e" d="M 71.5,59.5 C 72.4731,61.9479 72.8064,64.6146 72.5,67.5C 73.3705,70.1123 74.0372,72.779 74.5,75.5C 72.1257,72.3141 71.1257,68.6474 71.5,64.5C 71.5,62.8333 71.5,61.1667 71.5,59.5 Z"/></g>
<g><path style="opacity:1" fill="#bd468b" d="M 72.5,67.5 C 73.8566,68.6854 75.3566,69.6854 77,70.5C 81,69.1667 85,69.1667 89,70.5C 90.301,70.3613 91.1344,69.6946 91.5,68.5C 93.1584,71.7895 94.8251,75.1228 96.5,78.5C 96.631,79.2389 96.4643,79.9056 96,80.5C 89.6679,79.8317 83.1679,79.8317 76.5,80.5C 74.7868,79.3646 74.1201,77.698 74.5,75.5C 74.0372,72.779 73.3705,70.1123 72.5,67.5 Z"/></g>
<g><path style="opacity:1" fill="#bf468c" d="M 146.5,66.5 C 148.009,69.6777 149.342,73.0111 150.5,76.5C 151.677,78.1026 151.511,79.436 150,80.5C 144.667,80.5 139.333,80.5 134,80.5C 132.641,79.635 131.474,78.635 130.5,77.5C 129.596,76.791 129.263,75.791 129.5,74.5C 129.567,73.0413 129.234,71.7079 128.5,70.5C 134.471,70.297 140.471,70.297 146.5,70.5C 146.5,69.1667 146.5,67.8333 146.5,66.5 Z"/></g>
<g><path style="opacity:1" fill="#c84c81" d="M 96.5,78.5 C 99.1667,81.8333 102.167,84.8333 105.5,87.5C 97.2823,88.2912 88.949,88.6246 80.5,88.5C 78.509,86.1773 77.1757,83.5106 76.5,80.5C 83.1679,79.8317 89.6679,79.8317 96,80.5C 96.4643,79.9056 96.631,79.2389 96.5,78.5 Z"/></g>
<g><path style="opacity:1" fill="#c64b80" d="M 150.5,76.5 C 153.805,80.1408 157.138,83.8075 160.5,87.5C 152.951,88.5976 145.451,88.5976 138,87.5C 137.722,88.4158 137.222,89.0825 136.5,89.5C 133.553,86.0049 131.553,82.0049 130.5,77.5C 131.474,78.635 132.641,79.635 134,80.5C 139.333,80.5 144.667,80.5 150,80.5C 151.511,79.436 151.677,78.1026 150.5,76.5 Z"/></g>
<g><path style="opacity:1" fill="#392027" d="M 171.5,92.5 C 175.649,91.9197 179.316,92.5864 182.5,94.5C 182.167,94.5 181.833,94.5 181.5,94.5C 177.922,94.4512 174.589,93.7846 171.5,92.5 Z"/></g>
<g><path style="opacity:1" fill="#cf5177" d="M 105.5,87.5 C 115.739,93.6505 126.739,95.1505 138.5,92C 137.619,91.2917 136.953,90.4584 136.5,89.5C 137.222,89.0825 137.722,88.4158 138,87.5C 145.451,88.5976 152.951,88.5976 160.5,87.5C 164.043,89.4383 167.71,91.1049 171.5,92.5C 174.589,93.7846 177.922,94.4512 181.5,94.5C 181.5,94.8333 181.5,95.1667 181.5,95.5C 150.149,94.8409 119.149,95.5075 88.5,97.5C 85.1385,95.1051 82.4719,92.1051 80.5,88.5C 88.949,88.6246 97.2823,88.2912 105.5,87.5 Z"/></g>
<g><path style="opacity:1" fill="#d75573" d="M 181.5,95.5 C 181.5,96.8333 181.5,98.1667 181.5,99.5C 151.831,99.3334 122.165,99.5 92.5,100C 94.0557,100.72 95.0557,101.887 95.5,103.5C 92.5726,102.243 90.2393,100.243 88.5,97.5C 119.149,95.5075 150.149,94.8409 181.5,95.5 Z"/></g>
<g><path style="opacity:1" fill="#dc586c" d="M 181.5,99.5 C 181.5,101.167 181.5,102.833 181.5,104.5C 173.038,104.962 164.538,104.962 156,104.5C 155.167,104.667 154.333,104.833 153.5,105C 155.32,105.2 156.653,106.034 157.5,107.5C 155.451,106.359 153.451,106.359 151.5,107.5C 151.539,106.244 151.039,105.244 150,104.5C 135.333,105.833 120.667,105.833 106,104.5C 104.271,104.974 103.105,105.974 102.5,107.5C 99.6689,106.921 97.3356,105.588 95.5,103.5C 95.0557,101.887 94.0557,100.72 92.5,100C 122.165,99.5 151.831,99.3334 181.5,99.5 Z"/></g>
<g><path style="opacity:1" fill="#db5962" d="M 151.5,107.5 C 139.116,113.552 126.116,115.052 112.5,112C 108.771,111.156 105.437,109.656 102.5,107.5C 103.105,105.974 104.271,104.974 106,104.5C 120.667,105.833 135.333,105.833 150,104.5C 151.039,105.244 151.539,106.244 151.5,107.5 Z"/></g>
<g><path style="opacity:1" fill="#df5a64" d="M 181.5,104.5 C 181.5,107.167 181.5,109.833 181.5,112.5C 178.5,112.5 175.5,112.5 172.5,112.5C 172.167,112.5 171.833,112.5 171.5,112.5C 169.485,111.076 167.152,110.41 164.5,110.5C 161.843,110.065 159.509,109.065 157.5,107.5C 156.653,106.034 155.32,105.2 153.5,105C 154.333,104.833 155.167,104.667 156,104.5C 164.538,104.962 173.038,104.962 181.5,104.5 Z"/></g>
<g><path style="opacity:1" fill="#893d3f" d="M 164.5,110.5 C 167.152,110.41 169.485,111.076 171.5,112.5C 168.848,112.59 166.515,111.924 164.5,110.5 Z"/></g>
<g><path style="opacity:1" fill="#ad4a50" d="M 181.5,94.5 C 181.833,94.5 182.167,94.5 182.5,94.5C 182.5,100.833 182.5,107.167 182.5,113.5C 178.958,113.813 175.625,113.479 172.5,112.5C 175.5,112.5 178.5,112.5 181.5,112.5C 181.5,109.833 181.5,107.167 181.5,104.5C 181.5,102.833 181.5,101.167 181.5,99.5C 181.5,98.1667 181.5,96.8333 181.5,95.5C 181.5,95.1667 181.5,94.8333 181.5,94.5 Z"/></g>
<g><path style="opacity:1" fill="#2d2d2d" d="M 72.5,144.5 C 73.0803,140.351 72.4136,136.684 70.5,133.5C 69.8333,137.5 69.1667,141.5 68.5,145.5C 68.5,141.167 68.5,136.833 68.5,132.5C 70.5,132.5 72.5,132.5 74.5,132.5C 75.0894,136.971 74.4228,140.971 72.5,144.5 Z"/></g>
<g><path style="opacity:1" fill="#636363" d="M 82.5,133.5 C 85.6868,132.194 89.0202,132.194 92.5,133.5C 92.3764,134.107 92.0431,134.44 91.5,134.5C 88.7131,133.523 85.7131,133.19 82.5,133.5 Z"/></g>
<g><path style="opacity:1" fill="#5c5c5c" d="M 128.5,148.5 C 128.5,143.833 128.5,139.167 128.5,134.5C 130.565,133.166 128.565,133.166 122.5,134.5C 121.957,134.44 121.624,134.107 121.5,133.5C 125.445,132.509 129.445,132.176 133.5,132.5C 133.5,133.5 133.5,134.5 133.5,135.5C 132.167,135.5 130.833,135.5 129.5,135.5C 129.818,140.032 129.485,144.366 128.5,148.5 Z"/></g>
<g><path style="opacity:1" fill="#a2a2a2" d="M 82.5,133.5 C 85.7131,133.19 88.7131,133.523 91.5,134.5C 89.1667,134.5 86.8333,134.5 84.5,134.5C 84.5,136.5 84.5,138.5 84.5,140.5C 86.5273,140.338 88.5273,140.505 90.5,141C 88.2922,141.191 86.2922,141.691 84.5,142.5C 84.5,143.833 84.5,145.167 84.5,146.5C 87.3878,145.99 89.7211,146.656 91.5,148.5C 88.5,148.5 85.5,148.5 82.5,148.5C 82.5,143.5 82.5,138.5 82.5,133.5 Z"/></g>
<g><path style="opacity:1" fill="#a4a4a4" d="M 63.5,144.5 C 63.8333,145.5 64.5,146.167 65.5,146.5C 66.2625,147.268 67.2625,147.768 68.5,148C 66.8659,148.494 65.1992,148.66 63.5,148.5C 62.8333,147.5 62.1667,146.5 61.5,145.5C 61.3345,141.486 61.5012,137.486 62,133.5C 62.1773,137.356 62.6773,141.023 63.5,144.5 Z"/></g>
<g><path style="opacity:1" fill="#747474" d="M 63.5,144.5 C 62.6773,141.023 62.1773,137.356 62,133.5C 61.5012,137.486 61.3345,141.486 61.5,145.5C 60.5151,141.366 60.1818,137.032 60.5,132.5C 61.5,132.5 62.5,132.5 63.5,132.5C 63.5,136.5 63.5,140.5 63.5,144.5 Z"/></g>
<g><path style="opacity:1" fill="#9e9e9e" d="M 70.5,133.5 C 72.4136,136.684 73.0803,140.351 72.5,144.5C 72.1667,145.167 71.8333,145.833 71.5,146.5C 70.5151,142.366 70.1818,138.032 70.5,133.5 Z"/></g>
<g><path style="opacity:1" fill="#868686" d="M 46.5,133.5 C 44.4727,133.338 42.4727,133.505 40.5,134C 42.3817,134.198 44.0484,134.698 45.5,135.5C 38.4846,135.688 36.6513,139.021 40,145.5C 41.3561,146.38 42.8561,146.714 44.5,146.5C 44.5,145.5 44.5,144.5 44.5,143.5C 45.8333,143.5 47.1667,143.5 48.5,143.5C 47.791,144.404 46.791,144.737 45.5,144.5C 45.5,145.5 45.5,146.5 45.5,147.5C 43.901,147.232 42.5676,147.566 41.5,148.5C 40.8333,148.5 40.1667,148.5 39.5,148.5C 34.3021,143.302 34.3021,138.135 39.5,133C 42.0385,132.204 44.3718,132.371 46.5,133.5 Z"/></g>
<g><path style="opacity:1" fill="#1f1f1f" d="M 45.5,135.5 C 48.1717,137.391 49.1717,140.058 48.5,143.5C 47.1667,143.5 45.8333,143.5 44.5,143.5C 44.5,144.5 44.5,145.5 44.5,146.5C 42.8561,146.714 41.3561,146.38 40,145.5C 36.6513,139.021 38.4846,135.688 45.5,135.5 Z"/></g>
<g><path style="opacity:1" fill="#5d5d5d" d="M 122.5,134.5 C 123.833,134.5 125.167,134.5 126.5,134.5C 126.5,139.167 126.5,143.833 126.5,148.5C 125.515,144.366 125.182,140.032 125.5,135.5C 124.209,135.737 123.209,135.404 122.5,134.5 Z"/></g>
<g><path style="opacity:1" fill="#aeaeae" d="M 122.5,134.5 C 128.565,133.166 130.565,133.166 128.5,134.5C 128.5,139.167 128.5,143.833 128.5,148.5C 127.833,148.5 127.167,148.5 126.5,148.5C 126.5,143.833 126.5,139.167 126.5,134.5C 125.167,134.5 123.833,134.5 122.5,134.5 Z"/></g>
<g><path style="opacity:1" fill="#1b1b1b" d="M 185.5,135.5 C 191.329,135 193.663,137.666 192.5,143.5C 191.608,145.714 189.942,146.714 187.5,146.5C 185.412,146.38 184.078,145.38 183.5,143.5C 183.448,141.097 183.781,138.764 184.5,136.5C 184.5,135.833 184.833,135.5 185.5,135.5 Z"/></g>
<g><path style="opacity:1" fill="#6e6e6e" d="M 184.5,133.5 C 186.966,132.366 189.633,132.199 192.5,133C 193.304,134.771 194.471,136.271 196,137.5C 196.796,140.039 196.629,142.372 195.5,144.5C 195.852,141.927 195.352,139.594 194,137.5C 193.809,139.708 193.309,141.708 192.5,143.5C 193.663,137.666 191.329,135 185.5,135.5C 186.952,134.698 188.618,134.198 190.5,134C 188.527,133.505 186.527,133.338 184.5,133.5 Z"/></g>
<g><path style="opacity:1" fill="#8d8d8d" d="M 103.5,132.5 C 105.857,132.337 108.19,132.503 110.5,133C 112.497,134.153 112.83,135.653 111.5,137.5C 109.49,135.829 107.157,135.162 104.5,135.5C 104.33,136.822 104.663,137.989 105.5,139C 108.432,139.272 110.932,140.438 113,142.5C 113.171,148.313 110.338,150.48 104.5,149C 103.313,147.981 102.313,146.814 101.5,145.5C 102,145.167 102.5,144.833 103,144.5C 104.396,145.394 105.896,146.061 107.5,146.5C 109,146.547 110,145.881 110.5,144.5C 107.496,143.245 104.663,141.579 102,139.5C 101.167,136.829 101.667,134.496 103.5,132.5 Z"/></g>
<g><path style="opacity:1" fill="#949494" d="M 184.5,133.5 C 186.527,133.338 188.527,133.505 190.5,134C 188.618,134.198 186.952,134.698 185.5,135.5C 184.833,135.5 184.5,135.833 184.5,136.5C 183.007,137.312 182.34,138.645 182.5,140.5C 182.52,141.726 182.853,142.726 183.5,143.5C 184.078,145.38 185.412,146.38 187.5,146.5C 189.942,146.714 191.608,145.714 192.5,143.5C 193.309,141.708 193.809,139.708 194,137.5C 195.352,139.594 195.852,141.927 195.5,144.5C 191.458,148.923 186.791,149.59 181.5,146.5C 180.735,143.904 180.401,141.237 180.5,138.5C 180.369,135.633 181.703,133.967 184.5,133.5 Z"/></g>
<g><path style="opacity:1" fill="#4b4b4b" d="M 184.5,136.5 C 183.781,138.764 183.448,141.097 183.5,143.5C 182.853,142.726 182.52,141.726 182.5,140.5C 182.34,138.645 183.007,137.312 184.5,136.5 Z"/></g>
<g><path style="opacity:1" fill="#666666" d="M 218.5,141.5 C 216.801,141.34 215.134,141.506 213.5,142C 214.416,142.278 215.082,142.778 215.5,143.5C 214.5,143.5 213.5,143.5 212.5,143.5C 212.5,142.5 212.5,141.5 212.5,140.5C 214.735,140.205 216.735,140.539 218.5,141.5 Z"/></g>
<g><path style="opacity:1" fill="#5d5d5d" d="M 91.5,134.5 C 89.7354,135.461 87.7354,135.795 85.5,135.5C 85.5,136.833 85.5,138.167 85.5,139.5C 87.5,139.5 89.5,139.5 91.5,139.5C 91.5,140.5 91.5,141.5 91.5,142.5C 89.1667,142.5 86.8333,142.5 84.5,142.5C 86.2922,141.691 88.2922,141.191 90.5,141C 88.5273,140.505 86.5273,140.338 84.5,140.5C 84.5,138.5 84.5,136.5 84.5,134.5C 86.8333,134.5 89.1667,134.5 91.5,134.5 Z"/></g>
<g><path style="opacity:1" fill="#6f6f6f" d="M 143.5,139.5 C 145.5,139.5 147.5,139.5 149.5,139.5C 149.5,140.5 149.5,141.5 149.5,142.5C 147.076,142.808 144.743,142.474 142.5,141.5C 142.863,140.817 143.196,140.15 143.5,139.5 Z"/></g>
<g><path style="opacity:1" fill="#8f8f8f" d="M 158.5,132.5 C 169.621,132.107 172.954,136.941 168.5,147C 165.553,149.164 162.219,149.998 158.5,149.5C 158.5,143.833 158.5,138.167 158.5,132.5 Z"/></g>
<g><path style="opacity:1" fill="#1c1c1c" d="M 161.5,135.5 C 165.58,135.081 167.58,136.914 167.5,141C 167.58,145.086 165.58,146.919 161.5,146.5C 161.5,142.833 161.5,139.167 161.5,135.5 Z"/></g>
<g><path style="opacity:1" fill="#a3a3a3" d="M 46.5,133.5 C 48.5869,134.585 49.9202,136.251 50.5,138.5C 50.0712,141.786 50.0712,144.953 50.5,148C 47.5184,148.498 44.5184,148.665 41.5,148.5C 42.5676,147.566 43.901,147.232 45.5,147.5C 45.5,146.5 45.5,145.5 45.5,144.5C 46.791,144.737 47.791,144.404 48.5,143.5C 49.1717,140.058 48.1717,137.391 45.5,135.5C 44.0484,134.698 42.3817,134.198 40.5,134C 42.4727,133.505 44.4727,133.338 46.5,133.5 Z"/></g>
<g><path style="opacity:1" fill="#858585" d="M 215.5,143.5 C 215.082,142.778 214.416,142.278 213.5,142C 215.134,141.506 216.801,141.34 218.5,141.5C 219.009,148.156 216.009,150.656 209.5,149C 202.911,143.538 202.911,138.205 209.5,133C 211.833,132.333 214.167,132.333 216.5,133C 217.973,133.71 218.64,134.876 218.5,136.5C 210.168,134.165 207.168,137.165 209.5,145.5C 211.421,146.641 213.421,146.808 215.5,146C 216.774,145.023 216.774,144.189 215.5,143.5 Z"/></g>
<g><path style="opacity:1" fill="#6f6f6f" d="M 70.5,133.5 C 70.1818,138.032 70.5151,142.366 71.5,146.5C 69.3846,149.517 66.718,150.184 63.5,148.5C 65.1992,148.66 66.8659,148.494 68.5,148C 67.2625,147.768 66.2625,147.268 65.5,146.5C 66.791,146.737 67.791,146.404 68.5,145.5C 69.1667,141.5 69.8333,137.5 70.5,133.5 Z"/></g>
<g><path style="opacity:1" fill="#494949" d="M 180.5,138.5 C 180.401,141.237 180.735,143.904 181.5,146.5C 179.974,145.508 179.307,144.008 179.5,142C 179.514,140.615 179.848,139.449 180.5,138.5 Z"/></g>
<g><path style="opacity:1" fill="#575757" d="M 50.5,138.5 C 51.1235,142.139 51.4568,145.805 51.5,149.5C 47.2984,149.817 43.2984,149.483 39.5,148.5C 40.1667,148.5 40.8333,148.5 41.5,148.5C 44.5184,148.665 47.5184,148.498 50.5,148C 50.0712,144.953 50.0712,141.786 50.5,138.5 Z"/></g>
<g><path style="opacity:1" fill="#5e5e5e" d="M 82.5,133.5 C 82.5,138.5 82.5,143.5 82.5,148.5C 85.5,148.5 88.5,148.5 91.5,148.5C 88.3752,149.479 85.0419,149.813 81.5,149.5C 81.1786,143.974 81.5119,138.64 82.5,133.5 Z"/></g>
</svg>
